<svg width="10" height="10" viewBox="0 0 10 10" fill="none" xmlns="http://www.w3.org/2000/svg">
<path d="M7.65167 7.23501L5 9.88668L2.34834 7.23501C1.82389 6.71056 1.46674 6.04237 1.32205 5.31495C1.17736 4.58752 1.25163 3.83352 1.53546 3.1483C1.81929 2.46308 2.29993 1.87741 2.91662 1.46536C3.5333 1.05331 4.25832 0.833374 5 0.833374C5.74168 0.833374 6.4667 1.05331 7.08339 1.46536C7.70007 1.87741 8.18072 2.46308 8.46455 3.1483C8.74838 3.83352 8.82264 4.58752 8.67795 5.31495C8.53326 6.04237 8.17611 6.71056 7.65167 7.23501ZM5 6.25001C5.44203 6.25001 5.86595 6.07441 6.17851 5.76185C6.49107 5.44929 6.66667 5.02537 6.66667 4.58334C6.66667 4.14131 6.49107 3.71739 6.17851 3.40483C5.86595 3.09227 5.44203 2.91668 5 2.91668C4.55797 2.91668 4.13405 3.09227 3.82149 3.40483C3.50893 3.71739 3.33334 4.14131 3.33334 4.58334C3.33334 5.02537 3.50893 5.44929 3.82149 5.76185C4.13405 6.07441 4.55797 6.25001 5 6.25001ZM5 5.41668C4.77899 5.41668 4.56703 5.32888 4.41075 5.1726C4.25447 5.01632 4.16667 4.80436 4.16667 4.58334C4.16667 4.36233 4.25447 4.15037 4.41075 3.99409C4.56703 3.83781 4.77899 3.75001 5 3.75001C5.22102 3.75001 5.43298 3.83781 5.58926 3.99409C5.74554 4.15037 5.83334 4.36233 5.83334 4.58334C5.83334 4.80436 5.74554 5.01632 5.58926 5.1726C5.43298 5.32888 5.22102 5.41668 5 5.41668Z" fill="white"/>
</svg>
